<?xml version="1.0" encoding="UTF-8" standalone="no"?>
<!-- Creator: CorelDRAW -->

<svg
   xmlns:dc="http://purl.org/dc/elements/1.1/"
   xmlns:cc="http://creativecommons.org/ns#"
   xmlns:rdf="http://www.w3.org/1999/02/22-rdf-syntax-ns#"
   xmlns:svg="http://www.w3.org/2000/svg"
   xmlns="http://www.w3.org/2000/svg"
   xmlns:sodipodi="http://sodipodi.sourceforge.net/DTD/sodipodi-0.dtd"
   xmlns:inkscape="http://www.inkscape.org/namespaces/inkscape"
   xml:space="preserve"
   width="1.16666in"
   height="0.513331in"
   style="shape-rendering: geometricprecision; text-rendering: geometricprecision; fill-rule: evenodd; clip-rule: evenodd;"
   viewBox="0 0 1.16666 0.513331"
   id="svg2"
   version="1.1"
   inkscape:version="0.48.5 r10040"
   sodipodi:docname="HBO-Logo.svg"><metadata
   id="metadata22"><rdf:RDF><cc:Work
       rdf:about=""><dc:format>image/svg+xml</dc:format><dc:type
         rdf:resource="http://purl.org/dc/dcmitype/StillImage" /></cc:Work></rdf:RDF></metadata><sodipodi:namedview
   pagecolor="#ffffff"
   bordercolor="#666666"
   borderopacity="1"
   objecttolerance="10"
   gridtolerance="10"
   guidetolerance="10"
   inkscape:pageopacity="0"
   inkscape:pageshadow="2"
   inkscape:window-width="1366"
   inkscape:window-height="705"
   id="namedview20"
   showgrid="false"
   inkscape:zoom="3.2857331"
   inkscape:cx="52.499699"
   inkscape:cy="23.099895"
   inkscape:window-x="-8"
   inkscape:window-y="-8"
   inkscape:window-maximized="1"
   inkscape:current-layer="svg2" />
 <defs
   id="defs4">
  <style
   type="text/css"
   id="style6">
   
    .fil0 {fill:#1F1A17;fill-rule:nonzero}
   
  </style>
 </defs>
 <g
   id="Layer_x0020_1"
   style="fill:#000000">
  <metadata
   id="CorelCorpID_0Corel-Layer" />
  <g
   id="_111644264"
   style="fill:#000000">
   <g
   id="g11"
   style="fill:#000000">
    <path
   id="_134052944"
   class="fil0"
   d="M0.868343 0.350689c0.0479843,0 0.0868622,-0.0389409 0.0868622,-0.0868583 0,-0.0480276 -0.038878,-0.0869055 -0.0868622,-0.0869055 -0.0479803,0 -0.0868425,0.038878 -0.0868425,0.0869055 0,0.0479173 0.0388622,0.0868583 0.0868425,0.0868583z"
   style="fill:#000000" />
    <g
   id="g14"
   style="fill:#000000">
     <polygon
   id="_134045216"
   class="fil0"
   points="0.223665,0.319157 0.223665,0.478106 0.34152,0.478106 0.34152,0.0512913 0.223665,0.0512913 0.223665,0.211996 0.148654,0.211996 0.148654,0.0512913 0.0307992,0.0512913 0.0307992,0.478106 0.148654,0.478106 0.148654,0.319157"
   style="fill:#000000" />
     <path
   id="_121531200"
   class="fil0"
   d="M0.651157 0.263831c0,-0.115874 0.0906693,-0.210591 0.204969,-0.216917l0.0243937 0c0.114299,0.00632677 0.205012,0.101043 0.205012,0.216917 0,0.119906 -0.0972205,0.217185 -0.217189,0.217185 -0.119965,0 -0.217185,-0.0972795 -0.217185,-0.217185zm0.217185 0.108598c0.0599921,0 0.108602,-0.0486693 0.108602,-0.108598 0,-0.0599764 -0.0486102,-0.108602 -0.108602,-0.108602 -0.0599724,0 -0.108583,0.048626 -0.108583,0.108602 0,0.0599291 0.0486102,0.108598 0.108583,0.108598z"
   style="fill:#000000" />
     <path
   id="_134053168"
   class="fil0"
   d="M0.546906 0.0512913c0.0321614,0 0.123189,0.0178858 0.123189,0.108913 0,0.0732165 -0.0352205,0.095063 -0.0624646,0.100028 -0.019685,0.00359843 0.0588661,0 0.0588661,0.0910276 0,0.130445 -0.114252,0.126846 -0.114252,0.126846l-0.18576 0 0 -0.426815 0.180421 0zm-0.0750591 0.103937l0 0.0642795 0.0625236 0c0,0 0.0250709,-0.00301575 0.0250709,-0.033752 0,-0.0308858 -0.0259252,-0.0305276 -0.0259252,-0.0305276l-0.0616693 0zm0 0.157165l0 0.064311 0.0625236 0c0,0 0.0250709,-0.00305906 0.0250709,-0.0337992 0,-0.0308858 -0.0259252,-0.0305118 -0.0259252,-0.0305118l-0.0616693 0z"
   style="fill:#000000" />
    </g>
   </g>
   <path
   id="_128645496"
   class="fil0"
   d="M1.08929 0.104638l-0.011122 0 0 -0.0520906 0.0194882 0c0.0134252,0 0.021248,0.00379528 0.021248,0.015689 0,0.00959055 -0.00540551,0.0130039 -0.0124252,0.0136535l0.0133858 0.022748 -0.0132717 0 -0.0120472 -0.0219409 -0.00525591 0 0 0.0219409zm0.0098622 -0.0307244c0.00502362,0 0.0078622,-0.0010748 0.0078622,-0.00675197 0,-0.00540945 -0.00567717,-0.00583071 -0.00989764,-0.00583071l-0.00782677 0 0 0.0125827 0.0098622 0zm-0.00176772 0.0530512c-0.025815,0 -0.0487165,-0.017874 -0.0487165,-0.0482953 0,-0.0306102 0.0229016,-0.0484488 0.0487165,-0.0484488 0.0257402,0 0.0484488,0.0178386 0.0484488,0.0484488 0,0.0304213 -0.0227087,0.0482953 -0.0484488,0.0482953zm0 -0.0855039c-0.0192165,0 -0.034752,0.0148819 -0.034752,0.0372087 0,0.0221732 0.0155354,0.0372087 0.034752,0.0370551l0 0.000153543c0.0186811,0 0.0346772,-0.0150354 0.0346772,-0.0372087 0,-0.0223268 -0.0159961,-0.0372087 -0.0346772,-0.0372087z"
   style="fill:#000000" />
  </g>
 </g>
</svg>